<svg xmlns="http://www.w3.org/2000/svg" viewBox="0 0 64 64">
  <rect width="64" height="64" rx="14" fill="#102332"/>
  <circle cx="32" cy="32" r="21" fill="#4f8cad"/>
  <path d="M13 31c8-5 15-5 23-1 6 3 11 3 16 0" fill="none" stroke="#f6d17b" stroke-width="3" stroke-linecap="round"/>
  <path d="M32 11c-7 7-10 14-10 21s3 14 10 21c7-7 10-14 10-21S39 18 32 11Z" fill="none" stroke="#f8f1da" stroke-width="2" opacity=".82"/>
  <path d="M12 32h40M32 11v42" stroke="#f8f1da" stroke-width="2" opacity=".5" stroke-linecap="round"/>
  <path d="M17 18c8 4 22 4 30 0M17 46c8-4 22-4 30 0" fill="none" stroke="#f8f1da" stroke-width="2" opacity=".45" stroke-linecap="round"/>
  <path d="M46 13l3 2-2 3" fill="none" stroke="#ff6f59" stroke-width="3" stroke-linecap="round" stroke-linejoin="round"/>
  <path d="M49 15a25 25 0 0 1 7 17" fill="none" stroke="#ff6f59" stroke-width="3" stroke-linecap="round"/>
</svg>
